<svg version="1.0" xmlns="http://www.w3.org/2000/svg"
 width="481.000000pt" height="511.000000pt" viewBox="0 0 481.000000 511.000000"
 preserveAspectRatio="xMidYMid meet ">

<g transform="translate(0.000000,511.000000) scale(0.100000,-0.100000)"
fill="#3b82f6" stroke="none">
<path d="M0 2555 l0 -2555 2405 0 2405 0 0 2555 0 2555 -2405 0 -2405 0 0
-2555z m3176 1600 c-27 -430 -31 -533 -20 -544 10 -11 74 1 405 78 215 50 394
90 396 88 2 -2 -64 -134 -147 -293 -141 -272 -161 -316 -142 -327 4 -3 183
-42 397 -86 215 -45 398 -85 409 -89 15 -6 -45 -56 -308 -252 -253 -190 -326
-249 -324 -264 2 -12 143 -131 361 -304 197 -157 356 -287 353 -289 -2 -2
-194 12 -427 32 -345 29 -425 34 -435 23 -11 -11 8 -108 101 -523 63 -280 117
-521 120 -534 4 -16 -127 106 -375 350 -210 206 -385 375 -388 376 -27 10 -36
-42 -102 -553 -39 -296 -72 -546 -73 -554 -2 -8 -118 212 -258 490 -140 277
-258 506 -264 507 -5 1 -16 -1 -23 -5 -7 -5 -95 -312 -196 -683 -101 -371
-186 -667 -189 -659 -3 8 -33 265 -67 570 -34 305 -65 568 -69 585 -4 16 -15
31 -23 33 -9 2 -135 -87 -280 -197 -144 -110 -264 -198 -266 -196 -2 1 33 170
78 375 45 204 79 378 76 386 -3 8 -18 14 -33 14 -15 0 -246 -29 -513 -64 -267
-36 -486 -64 -487 -63 -1 1 144 130 322 287 178 157 324 292 324 301 1 9 -159
169 -354 355 -195 186 -351 341 -347 345 4 3 188 50 409 103 504 122 473 113
473 135 0 10 -169 256 -375 546 -206 290 -375 529 -375 532 0 3 10 -1 23 -9
814 -532 1206 -787 1223 -796 17 -9 24 -9 33 2 6 7 54 199 106 426 52 227 96
415 98 417 2 2 102 -155 222 -349 120 -194 225 -361 235 -371 9 -10 23 -15 31
-12 8 3 166 274 352 601 187 328 340 594 342 592 2 -2 -11 -242 -29 -533z"/>
<path d="M3270 3092 c-24 -19 -25 -25 -25 -129 0 -129 -1 -130 -96 -56 -114
90 -180 108 -200 56 -13 -35 34 -198 100 -343 50 -111 72 -131 92 -86 10 22 5
39 -44 143 -50 106 -81 203 -63 203 3 0 40 -27 82 -60 81 -65 113 -78 153 -64
39 14 51 49 51 151 0 61 4 94 12 99 17 11 83 -69 144 -173 45 -79 53 -88 79
-88 43 0 43 25 1 110 -96 194 -216 293 -286 237z"/>
<path d="M2589 2993 c-47 -123 -31 -475 27 -605 36 -80 57 -25 52 137 l-3 120
65 11 c122 22 121 22 181 -56 51 -66 85 -90 108 -75 21 12 11 43 -40 121 -96
147 -235 309 -309 358 -38 25 -69 21 -81 -11z m188 -207 c19 -37 8 -47 -56
-54 -48 -4 -51 -3 -61 22 -11 31 -13 125 -3 152 5 15 15 9 56 -37 27 -30 55
-67 64 -83z"/>
<path d="M2215 2863 c-156 -29 -199 -47 -203 -85 -3 -22 1 -27 23 -30 24 -3
31 -14 64 -103 80 -211 183 -375 237 -375 31 0 77 34 125 91 68 80 89 114 89
141 0 35 -8 39 -40 23 -28 -15 -140 -132 -140 -147 0 -16 -27 -8 -47 15 -27
29 -63 101 -63 126 0 28 38 51 99 58 64 7 80 23 57 58 -21 32 -55 32 -142 1
-37 -14 -71 -23 -75 -21 -13 9 -42 136 -33 144 5 5 52 19 104 31 102 24 140
42 140 65 0 14 -40 37 -58 34 -4 0 -65 -12 -137 -26z"/>
<path d="M1875 2664 c-66 -25 -172 -63 -235 -84 -85 -29 -116 -44 -118 -57 -6
-43 9 -44 137 -13 67 17 124 30 126 30 2 0 16 -33 31 -72 85 -226 176 -341
223 -284 19 22 4 58 -70 172 -46 71 -72 123 -80 160 -14 64 -12 67 57 93 54
21 89 58 78 84 -3 9 -11 17 -18 17 -6 -1 -65 -21 -131 -46z"/>
<path d="M2672 2109 c-90 -19 -139 -130 -92 -206 33 -55 55 -40 55 35 0 47 4
57 29 78 33 29 42 28 70 -10 17 -22 21 -47 26 -149 5 -112 7 -122 25 -125 15
-2 28 10 47 43 32 52 49 62 84 47 35 -17 32 -73 -7 -150 -32 -61 -33 -87 -4
-98 24 -10 61 21 84 70 27 56 38 170 19 206 -20 38 -75 70 -120 70 -22 0 -40
5 -42 13 -40 138 -94 193 -174 176z"/>
</g>
</svg>
